PathFileType	4	(X/Y/Z)	Walk1.trc
DataRate	CameraRate	NumFrames	NumMarkers	Units	OrigDataRate	OrigDataStartFrame	OrigNumFrames
200.000000	200.000000	5	61	mm	200.000000	445	638
Frame#	Times		RCAR		LToe		LLFC		LASI		LFA1		RACR1		LUA1		RWRR		LCAR		LElbow		RLFC		LWRR		RTB2		RToe		RFA1		LACR1		RMT1		RTH3		RTH2		RTB3		LTH3		RFHD		RMT5		LTH4		RTB1		STRN		LFHD		LTB1		RTB4		LTB4		LWRU		RCAL		RWRU		LPSI		LTH2		C7		LMT1		RPSI		RMMAL		RLMAL		RASI		RMFC		LTB3		CLAV		LTB2		RElbow		LBHD		RBHD		LMFC		RUA1		RBack		RElbowM		LMMAL		RTH4		LElbowM		LMT5		LCAL		T10		LTH1		LLMAL		RTH1
			X1	Y1	Z1	X2	Y2	Z2	X3	Y3	Z3	X4	Y4	Z4	X5	Y5	Z5	X6	Y6	Z6	X7	Y7	Z7	X8	Y8	Z8	X9	Y9	Z9	X10	Y10	Z10	X11	Y11	Z11	X12	Y12	Z12	X13	Y13	Z13	X14	Y14	Z14	X15	Y15	Z15	X16	Y16	Z16	X17	Y17	Z17	X18	Y18	Z18	X19	Y19	Z19	X20	Y20	Z20	X21	Y21	Z21	X22	Y22	Z22	X23	Y23	Z23	X24	Y24	Z24	X25	Y25	Z25	X26	Y26	Z26	X27	Y27	Z27	X28	Y28	Z28	X29	Y29	Z29	X30	Y30	Z30	X31	Y31	Z31	X32	Y32	Z32	X33	Y33	Z33	X34	Y34	Z34	X35	Y35	Z35	X36	Y36	Z36	X37	Y37	Z37	X38	Y38	Z38	X39	Y39	Z39	X40	Y40	Z40	X41	Y41	Z41	X42	Y42	Z42	X43	Y43	Z43	X44	Y44	Z44	X45	Y45	Z45	X46	Y46	Z46	X47	Y47	Z47	X48	Y48	Z48	X49	Y49	Z49	X50	Y50	Z50	X51	Y51	Z51	X52	Y52	Z52	X53	Y53	Z53	X54	Y54	Z54	X55	Y55	Z55	X56	Y56	Z56	X57	Y57	Z57	X58	Y58	Z58	X59	Y59	Z59	X60	Y60	Z60	X61	Y61	Z61

445	2.225	416.59	868.47	435.37	229.38	47.56	-21.797	383.28	524.53	-108.12	365.98	1041.9	-93.753	322.43	1067.6	-254.73	315.93	1506.5	270.29	280.99	1364.6	-186.26	417.81	913.6	375.59	362.69	903.42	-277.02	241.19	1198.4	-237.22	317.76	511.55	235.74	368.29	939.2	-219.26	358.02	277.14	196.56	502.89	41.55	119.63	355.15	1045.4	405.5	294.71	1546.6	-100.22	452.97	53.452	105.13	295.32	649.16	249.91	336.18	742.45	270.43	346.98	198.55	125.75	380.16	649.25	-132.86	451.3	1709.8	158.61	408.84	31.542	199.65	355.28	732.18	-142.42	365.86	369.35	145.32	435.24	1309.6	67.872	451.09	1719.5	53.76	349.91	387.56	-8.7051	356.53	283.53	135.11	284.35	333.4	1.1779	291.05	940.14	-273.7	231.06	41.137	119.16	351.92	899.14	433.11	145.4	1076.6	7.6077	409.5	751.04	-139.47	200.86	1566.5	98.23	193.11	86.299	0.4696	146.73	1075.4	116.66	321.84	105.64	72.501	290.48	72.814	162.41	366.74	1055.1	226.07	307.46	508.82	87.471	222.59	276.37	10.741	368.09	1481.9	69.194	287.47	319.34	-61.064	261.3	1168.2	391.36	284.64	1707.9	32.964	280.89	1698.3	175.09	426.66	512.79	25.324	301.44	1326.8	343.97	150.06	1439.8	212.26	234.74	1138.7	302.44	142.72	216.44	55.838	278.18	730.34	259.16	211.97	1168	-152.3	142.67	105.48	-76.128	37.919	241.06	14.816	161.96	1210.2	63.871	330.09	815.48	-150.44	94.474	217.91	-37.639	262.72	816.8	271.06
446	2.23	425.08	870.15	435.94	248.1	47.33	-20.992	392.85	525.69	-107.49	371.11	1042.4	-93.007	326.29	1067.9	-254.51	321.01	1507.1	270.48	285.13	1364.8	-185.94	425.82	915.17	376.1	366.68	903.88	-276.99	245.05	1198.6	-236.73	319.08	511.49	235.96	372.49	939.53	-219.19	358.58	276.91	196.88	503.06	41.269	119.69	362.38	1046.6	406.11	299.35	1546.8	-99.983	453.09	53.367	105.24	297.43	649.26	250.15	338.8	742.29	270.81	347.6	198.42	126.03	388.38	650.65	-132.27	456.43	1709.9	158.7	408.83	31.466	199.81	362.66	733.32	-141.95	366.99	369.11	145.71	439.95	1309.8	68.23	456.18	1719.6	53.843	361.19	388.38	-7.825	357.37	283.34	135.41	296.6	333.11	1.8672	294.91	940.29	-273.12	231.1	41.203	119.11	360.16	900.33	433.8	150.2	1076.9	7.8039	416.71	752.71	-139.15	205.74	1566.8	98.575	210.72	85.149	1.1067	151.36	1075.6	116.9	322.09	105.62	72.498	290.58	72.861	162.32	371.25	1055.5	226.73	309.55	508.92	87.609	236.25	275.15	11.686	372.89	1482.2	69.409	300.11	318.91	-60.276	267.76	1168.8	392.19	289.69	1708.2	33.14	286.01	1698.7	175.26	435.55	514.79	26.142	307.22	1327.5	344.45	155.04	1440.1	212.76	241.12	1139.1	303.34	156.74	213.79	56.253	280.79	730.54	259.37	216.16	1168.3	-151.68	160.12	103.04	-75.685	51.367	235.75	14.839	166.69	1210.6	64.299	336.7	816.37	-150	108.83	213.99	-37.426	265.81	817.07	271.29
447	2.235	433.55	871.82	436.49	266.93	47.073	-20.291	402.3	526.81	-106.84	376.26	1042.8	-92.249	330.18	1068.1	-254.29	326.06	1507.7	270.67	289.28	1365	-185.63	433.81	916.75	376.61	370.69	904.31	-276.95	248.93	1198.8	-236.25	320.38	511.42	236.2	376.71	939.85	-219.13	359.13	276.69	197.2	503.23	40.996	119.77	369.58	1047.8	406.72	303.98	1546.9	-99.758	453.2	53.291	105.36	299.52	649.36	250.38	341.4	742.13	271.17	348.2	198.3	126.3	396.55	652.04	-131.68	461.54	1710	158.77	408.82	31.392	199.98	370.01	734.45	-141.5	368.09	368.88	146.09	444.66	1310	68.602	461.25	1719.6	53.907	372.4	389.12	-6.9512	358.2	283.15	135.71	308.87	332.71	2.5491	298.81	940.42	-272.53	231.16	41.27	119.07	368.4	901.5	434.45	155.01	1077.2	7.9656	423.91	754.36	-138.79	210.6	1567.2	98.907	228.46	83.918	1.6666	155.99	1075.8	117.09	322.33	105.6	72.503	290.69	72.904	162.24	375.78	1055.8	227.43	311.62	509.01	87.751	250.04	273.79	12.612	377.69	1482.5	69.623	312.76	318.42	-59.503	274.19	1169.4	392.99	294.73	1708.5	33.302	291.11	1699.1	175.42	444.25	516.76	26.97	312.97	1328.1	344.94	160.01	1440.5	213.25	247.47	1139.4	304.23	170.92	210.96	56.64	283.38	730.73	259.55	220.35	1168.5	-151.06	177.69	100.53	-75.285	65.026	230.21	14.881	171.42	1210.9	64.706	343.32	817.25	-149.57	123.35	209.9	-37.217	268.89	817.33	271.5
448	2.24	442.01	873.49	437.01	285.85	46.796	-19.692	411.63	527.89	-106.17	381.43	1043.2	-91.484	334.08	1068.3	-254.07	331.08	1508.2	270.86	293.44	1365.2	-185.33	441.8	918.33	377.1	374.72	904.7	-276.9	252.83	1198.9	-235.78	321.66	511.37	236.45	380.97	940.14	-219.06	359.68	276.47	197.52	503.4	40.735	119.87	376.77	1048.9	407.3	308.6	1547.1	-99.542	453.31	53.225	105.48	301.59	649.46	250.62	343.99	741.95	271.5	348.8	198.19	126.57	404.67	653.41	-131.1	466.62	1710.1	158.83	408.8	31.321	200.14	377.35	735.57	-141.07	369.17	368.65	146.47	449.38	1310.2	68.987	466.3	1719.6	53.953	383.54	389.78	-6.0905	359.01	282.96	136	321.15	332.21	3.2197	302.73	940.52	-271.94	231.21	41.337	119.03	376.62	902.65	435.06	159.83	1077.4	8.0931	431.09	755.98	-138.4	215.45	1567.5	99.225	246.32	82.616	2.1512	160.62	1076	117.25	322.57	105.59	72.517	290.8	72.944	162.16	380.33	1056.1	228.17	313.66	509.09	87.898	263.93	272.31	13.497	382.48	1482.7	69.837	325.44	317.85	-58.752	280.58	1169.9	393.79	299.73	1708.7	33.45	296.19	1699.4	175.57	452.78	518.68	27.805	318.69	1328.7	345.43	164.96	1440.8	213.71	253.8	1139.8	305.1	185.25	207.95	56.993	285.95	730.93	259.73	224.55	1168.8	-150.47	195.4	97.958	-74.929	78.899	224.48	14.934	176.16	1211.1	65.09	349.95	818.12	-149.16	138.02	205.67	-37.017	271.94	817.59	271.7
449	2.245	450.45	875.15	437.5	304.85	46.506	-19.187	420.82	528.92	-105.48	386.63	1043.6	-90.714	338.02	1068.4	-253.86	336.07	1508.6	271.04	297.61	1365.3	-185.04	449.78	919.9	377.57	378.77	905.05	-276.83	256.76	1199.1	-235.34	322.94	511.32	236.71	385.25	940.42	-218.99	360.22	276.26	197.83	503.55	40.488	119.98	383.93	1050	407.87	313.22	1547.2	-99.335	453.42	53.17	105.6	303.65	649.56	250.85	346.57	741.77	271.81	349.38	198.07	126.84	412.74	654.78	-130.52	471.67	1710.2	158.87	408.79	31.253	200.3	384.68	736.67	-140.65	370.23	368.42	146.84	454.11	1310.4	69.385	471.31	1719.6	53.981	394.61	390.36	-5.2488	359.81	282.76	136.3	333.43	331.6	3.8746	306.7	940.58	-271.35	231.28	41.404	118.99	384.84	903.79	435.63	164.67	1077.6	8.1874	438.26	757.57	-137.98	220.29	1567.7	99.53	264.3	81.254	2.5642	165.26	1076.1	117.37	322.8	105.57	72.54	290.9	72.981	162.1	384.91	1056.5	228.95	315.67	509.15	88.053	277.87	270.69	14.323	387.27	1482.9	70.051	338.12	317.22	-58.027	286.95	1170.4	394.57	304.7	1709	33.585	301.25	1699.8	175.7	461.12	520.55	28.644	324.36	1329.3	345.92	169.9	1441	214.17	260.1	1140	305.96	199.73	204.79	57.307	288.52	731.14	259.91	228.75	1168.9	-149.9	213.21	95.338	-74.617	92.987	218.58	14.986	180.91	1211.4	65.454	356.59	818.97	-148.76	152.85	201.31	-36.834	274.98	817.86	271.9
